/* XPM */
static char * lionwall_xpm[] = {
"64 64 430 2",
"  	c #093D3D",
". 	c #F2F2EA",
"+ 	c #406C53",
"@ 	c #85CB56",
"# 	c #1D6C6C",
"$ 	c #095263",
"% 	c #B5B5AD",
"& 	c #8F8A7D",
"* 	c #817F78",
"= 	c #D1D1C9",
"- 	c #D3D2CA",
"; 	c #ADACA5",
"> 	c #413F38",
", 	c #D4D4CC",
"' 	c #D7D6CF",
") 	c #7A7971",
"! 	c #6C6A63",
"~ 	c #8F8E87",
"{ 	c #B6B5AE",
"] 	c #73716A",
"^ 	c #797770",
"/ 	c #DEDED6",
"( 	c #E1E1D9",
"_ 	c #ECECE4",
": 	c #EFEFE7",
"< 	c #F0F0E8",
"[ 	c #DFDFD7",
"} 	c #EBEBE3",
"| 	c #EAEAE2",
"1 	c #D9D9D1",
"2 	c #C7C7BF",
"3 	c #B1B1A9",
"4 	c #BBBAB3",
"5 	c #6B6A62",
"6 	c #B9B8B1",
"7 	c #BDBCB5",
"8 	c #716F68",
"9 	c #7F7D76",
"0 	c #E9E9E1",
"a 	c #CCCCC4",
"b 	c #CBCAC3",
"c 	c #CC70F6",
"d 	c #DCDCD4",
"e 	c #E3E3DB",
"f 	c #77756E",
"g 	c #DDDDD5",
"h 	c #198F6D",
"i 	c #A4A39C",
"j 	c #C3C2BA",
"k 	c #C5C5BD",
"l 	c #E3E2DA",
"m 	c #7E7D75",
"n 	c #C3C3BB",
"o 	c #706F67",
"p 	c #B747C7",
"q 	c #FFEC83",
"r 	c #B1B0A8",
"s 	c #B3B3AB",
"t 	c #CAC9C1",
"u 	c #BEBEB6",
"v 	c #C1C1B9",
"w 	c #ABAAA3",
"x 	c #9E9D95",
"y 	c #C6C6BE",
"z 	c #E8E8E0",
"A 	c #807F77",
"B 	c #EEEEE6",
"C 	c #F1F0E8",
"D 	c #CCCBC3",
"E 	c #B7B7AF",
"F 	c #E2E2DA",
"G 	c #DCDBD3",
"H 	c #C4C3BC",
"I 	c #AFAEA7",
"J 	c #AAA9A1",
"K 	c #BEBDB5",
"L 	c #9F9E96",
"M 	c #C2C1BA",
"N 	c #C7C6BF",
"O 	c #9C9B94",
"P 	c #B5B4AC",
"Q 	c #D2D2CA",
"R 	c #ECEBE4",
"S 	c #D7D7CF",
"T 	c #DEDDD6",
"U 	c #E7E7DF",
"V 	c #EDEDE5",
"W 	c #69675F",
"X 	c #9D947B",
"Y 	c #DBDBD3",
"Z 	c #9C9B93",
"` 	c #A09F97",
" .	c #DAD9D1",
"..	c #A2A19A",
"+.	c #95948D",
"@.	c #BAB9B1",
"#.	c #727069",
"$.	c #E8E8DF",
"%.	c #EBEBE2",
"&.	c #BFB8A5",
"*.	c #CAC6B5",
"=.	c #919088",
"-.	c #CACAC2",
";.	c #E6E6DE",
">.	c #A1A099",
",.	c #94938C",
"'.	c #E8E7DF",
").	c #F1F1E9",
"!.	c #ECEBE3",
"~.	c #C0BBA8",
"{.	c #BAB49F",
"].	c #C2BCA9",
"^.	c #D1CDBE",
"/.	c #B2B1AA",
"(.	c #CDCDC5",
"_.	c #C5C4BC",
":.	c #D0CFC8",
"<.	c #C8C8C0",
"[.	c #D5D4CC",
"}.	c #9B9A92",
"|.	c #797870",
"1.	c #75736B",
"2.	c #EEEEE5",
"3.	c #AAA28D",
"4.	c #C1BBA8",
"5.	c #6D6A5E",
"6.	c #BCBBB3",
"7.	c #D5D5CD",
"8.	c #9B9A93",
"9.	c #B3B2AA",
"0.	c #C1C0B8",
"a.	c #5C5A53",
"b.	c #66655D",
"c.	c #C4BFAC",
"d.	c #EDECE4",
"e.	c #E5E4DC",
"f.	c #B7B19C",
"g.	c #C3BFAC",
"h.	c #D0D0C8",
"i.	c #AEAEA6",
"j.	c #B7B6AE",
"k.	c #525149",
"l.	c #B2AB97",
"m.	c #B1AA94",
"n.	c #BAB4A0",
"o.	c #F0F0E6",
"p.	c #F1F1E8",
"q.	c #DCDBD2",
"r.	c #AEACA2",
"s.	c #B3AC97",
"t.	c #B4AF9B",
"u.	c #E5E4DD",
"v.	c #76756D",
"w.	c #929189",
"x.	c #919089",
"y.	c #B2B2AA",
"z.	c #6D6C64",
"A.	c #B0AEA4",
"B.	c #DEDCD3",
"C.	c #CFCDC4",
"D.	c #C2BDAA",
"E.	c #B2AC98",
"F.	c #CECEC6",
"G.	c #93928B",
"H.	c #68665F",
"I.	c #6E6D66",
"J.	c #999890",
"K.	c #E0E0D8",
"L.	c #7F7E76",
"M.	c #D9D8CE",
"N.	c #A19D92",
"O.	c #A7A089",
"P.	c #CEC9B9",
"Q.	c #E9E9E0",
"R.	c #DAD8CF",
"S.	c #C4C2B8",
"T.	c #AFA994",
"U.	c #68665E",
"V.	c #CECDC6",
"W.	c #B4B3AC",
"X.	c #86847D",
"Y.	c #65645C",
"Z.	c #595750",
"`.	c #BABAB2",
" +	c #D8D6CD",
".+	c #747167",
"++	c #C7C4BA",
"@+	c #EFEEE6",
"#+	c #E3E3DA",
"$+	c #D1CFC6",
"%+	c #AAA38D",
"&+	c #726E64",
"*+	c #989790",
"=+	c #DDDCD3",
"-+	c #D3CFC0",
";+	c #625E50",
">+	c #F0F2A3",
",+	c #ECECE3",
"'+	c #DCAC1C",
")+	c #E1DFD2",
"!+	c #D1D0C6",
"~+	c #F2D222",
"{+	c #616059",
"]+	c #E9E8E0",
"^+	c #DCD8CB",
"/+	c #B6B09B",
"(+	c #6A6860",
"_+	c #D5D4CA",
":+	c #C6C1AE",
"<+	c #A9A599",
"[+	c #A9A79C",
"}+	c #D7D4C5",
"|+	c #C9C3B3",
"1+	c #BDB7A3",
"2+	c #6D6A5F",
"3+	c #AFA993",
"4+	c #ADA792",
"5+	c #A4A195",
"6+	c #EEEDE2",
"7+	c #D2CEBF",
"8+	c #D7D4C6",
"9+	c #B3B0A4",
"0+	c #EAE8DD",
"a+	c #E7E5D9",
"b+	c #6D6B63",
"c+	c #C8C2B2",
"d+	c #B7B4A9",
"e+	c #999487",
"f+	c #EFEEE4",
"g+	c #F2F1E8",
"h+	c #DFDED5",
"i+	c #D5D1C3",
"j+	c #E6E5DD",
"k+	c #B3B1A8",
"l+	c #CCC7B7",
"m+	c #E9E7DB",
"n+	c #E5E3D6",
"o+	c #D4D0C1",
"p+	c #6B6961",
"q+	c #C9C5B4",
"r+	c #CCC8B7",
"s+	c #CECCC2",
"t+	c #DDD9CC",
"u+	c #BDBCB3",
"v+	c #ACA590",
"w+	c #E2E0D3",
"x+	c #CFCBBA",
"y+	c #6F6E67",
"z+	c #EAEAE1",
"A+	c #DBDAD0",
"B+	c #B6B19E",
"C+	c #6F6E66",
"D+	c #BAB9B0",
"E+	c #6C695E",
"F+	c #B5B09D",
"G+	c #B3AD99",
"H+	c #6A6960",
"I+	c #E4E3DB",
"J+	c #CDCBC1",
"K+	c #B7B09C",
"L+	c #D8D5C7",
"M+	c #BCB9AE",
"N+	c #B2B0A7",
"O+	c #C2C2BA",
"P+	c #E1E0D7",
"Q+	c #B0AEA5",
"R+	c #686458",
"S+	c #BFB9A6",
"T+	c #CECABA",
"U+	c #B5B3AA",
"V+	c #B9B39F",
"W+	c #BCB7A3",
"X+	c #ACA58F",
"Y+	c #EBE9DE",
"Z+	c #E5E5DC",
"`+	c #D3D1C7",
" @	c #C5C1AE",
".@	c #B1AFA5",
"+@	c #6C6B63",
"@@	c #D3D2C8",
"#@	c #A9A18A",
"$@	c #66645B",
"%@	c #D0CCBC",
"&@	c #ACA48F",
"*@	c #A8A08A",
"=@	c #A8A59B",
"-@	c #7D7B73",
";@	c #E2DFD2",
">@	c #D0CBBB",
",@	c #757167",
"'@	c #66635B",
")@	c #67655C",
"!@	c #A29F94",
"~@	c #D4D2C9",
"{@	c #C7C2B0",
"]@	c #C5C0AE",
"^@	c #CDC9B9",
"/@	c #78766F",
"(@	c #767369",
"_@	c #726F65",
":@	c #BCB8A6",
"<@	c #B3B1A7",
"[@	c #BBB6A2",
"}@	c #BCB7A2",
"|@	c #E7E7DE",
"1@	c #D0CEC4",
"2@	c #D0CDBD",
"3@	c #A5A297",
"4@	c #CBC7B7",
"5@	c #D2D0C7",
"6@	c #CBC7B6",
"7@	c #B1AFA4",
"8@	c #666255",
"9@	c #A0977F",
"0@	c #A29A82",
"a@	c #B0A993",
"b@	c #A6A398",
"c@	c #E3E2D9",
"d@	c #D6D4CB",
"e@	c #CBC9BF",
"f@	c #DAD9D0",
"g@	c #ACAAA0",
"h@	c #D2CFC0",
"i@	c #B9B4A1",
"j@	c #BAB5A1",
"k@	c #656154",
"l@	c #969286",
"m@	c #ACA48D",
"n@	c #B3AC98",
"o@	c #696659",
"p@	c #D9D8CF",
"q@	c #656155",
"r@	c #CCCAC0",
"s@	c #C3BEAB",
"t@	c #E2E1D8",
"u@	c #B8B7AE",
"v@	c #DFDDD0",
"w@	c #B5AE9A",
"x@	c #B6AF9B",
"y@	c #615E55",
"z@	c #A39A83",
"A@	c #CFCDC3",
"B@	c #C0BAA7",
"C@	c #C0BEB3",
"D@	c #A39B84",
"E@	c #A49B84",
"F@	c #BAB5A0",
"G@	c #C8C6BC",
"H@	c #C9C7BD",
"I@	c #C6C1AF",
"J@	c #E9E8DC",
"K@	c #C7C5BB",
"L@	c #BAB39F",
"M@	c #AAA28C",
"N@	c #A59D85",
"O@	c #A7A499",
"P@	c #B9B6AB",
"Q@	c #BDB7A4",
"R@	c #B4AD98",
"S@	c #B5AE99",
"T@	c #B2AB98",
"U@	c #B0AA96",
"V@	c #D1CFC5",
"W@	c #ADA690",
"X@	c #D3D1C8",
"Y@	c #B7B6AD",
"Z@	c #DEDDD4",
"`@	c #6B675C",
" #	c #BEB8A5",
".#	c #AEA893",
"+#	c #A3A095",
"@#	c #B7B5AB",
"##	c #C1BDAC",
"$#	c #B2AB95",
"%#	c #686559",
"&#	c #AAA28B",
"*#	c #D7D5CC",
"=#	c #B6B4AB",
"-#	c #DCDAD1",
";#	c #C9C4B3",
">#	c #6A675B",
",#	c #9E9B8F",
"'#	c #AFADA3",
")#	c #716F67",
"!#	c #6A665A",
"~#	c #6A665B",
"{#	c #B1AB96",
"]#	c #77756B",
"^#	c #78766C",
"/#	c #DBD8CA",
"(#	c #D4D3C9",
"_#	c #757268",
":#	c #CAC8BE",
"<#	c #BBB9AE",
"[#	c #AEABA0",
"}#	c #6E6C65",
"|#	c #A6A397",
"1#	c #989280",
"2#	c #6F6C61",
"3#	c #BDB9A7",
"4#	c #D8D5C6",
"5#	c #ACA691",
"6#	c #B0ADA1",
"7#	c #C5C3BB",
"8#	c #716E63",
"9#	c #C3C0B6",
"0#	c #BBB8AD",
"a#	c #BAB7AC",
"b#	c #ABA48E",
"c#	c #B9B39E",
"d#	c #B5AF9C",
"e#	c #D3D3CA",
"f#	c #CCCBC2",
"g#	c #69665A",
"h#	c #BDBAAF",
"i#	c #C6C2AF",
"j#	c #6F6C62",
"k#	c #A8A69B",
"l#	c #D7D3C4",
"m#	c #B0ADA2",
"n#	c #706D62",
"o#	c #BCBCB3",
"p#	c #737169",
"q#	c #B0AA95",
"r#	c #6D6857",
"s#	c #B8B29D",
"t#	c #B2AB96",
"u#	c #C5E9AB",
"v#	c #A79F88",
"w#	c #A29981",
"  . + @ @ # $ # @ @ @ + $ # # + + @ $   .     $ $ $   $ $ # + % .     $ + + + + $   $ # @ . @ + # # @ @ @ @ + $ # $ @ @ @ @ + + ",
"+ # + @ @ $   $ @ @ + + $ # $ # . #         # $ $ $ $     # + % $ $   $ $ + @ $     # @ + @ + + $ + + @ + + + @ + + + @ @ + $ @ ",
"# # @ + # $   $ @ + + $ # $ $ $ $         $ $ # $ & & $ $ $ # $         $ # #     $ + + @ @ + # $ & # $ + + @ + @ @ + + + # $ $ ",
"# . @ + $ $ $ + + @ + + # # $ $ $       $ $ $ $   . . .     $       . . $ $ $ $ $ $ $ . $ $ + # # $ $ $ # # + @ @ # # @ # $ $   ",
"# $ + + $ # @ + # + # + + . # % $       $ $ $     . . . . .       . . . . $ . $ $   $   . $ . + $ $ $ $ # # $ + + $   + # $   $ ",
"# # # # + # @ + @ $ $ + # # . % . $ . .   . .   . . . . . . .   . . . . . . . % .       . . . % $ $ $ # # $ # # # $   # +       ",
"# . # # $ + # @ @ + $ $ $ $ $ % . . . . . . . % . . . . . . . % . . . . . . . % . .   . . . . % .   # # # . . # $ $ + + # $ $ $ ",
". + + # + . # @ @ @ . . $     % . . . . . . . % . . . * * * * % . . . . . . . % . . . . . . . % . .   $ . . $ $ $ @ # + # $ $ # ",
"$ # @ # # . @ + @ = - ; .   . * * * * * . . . * * * * . . . . * > * . . . . . % . . . . . . . % .               $ $ # + # # # # ",
"# # # # . . . + * . , - ' . . . . . . . * ) * . . . . . . . . ! ~ { ] . . . . % . . . . . . . %         . . .     $ $ $ # $ # # ",
"# # # # $ . . % . ^ . . / ( _ : < * * * . [ } | 1 2 3 4 [ [ . 5 6 7 8 . . . . % . . . . . . . % . .   . . . .   $ $ # # # # # $ ",
". . # # # . . % . 9 0 _ _ . * * * . . . . . . | 1 2 3 a / . . 8 b > . . . . . % . . . . . . c % . . . . . . . % $ # # $ $ . . # ",
". . * # . . . % . * * * * * . . . . . . . . . . . . . d e . . f g * . . . . . % . . . . . c c c . . # h . . . % . .   $   . . % ",
". * . . * * * * * . . . . . . . i 3 j . . k a . . . . l . . * | m . . . . . . % . . n o p c q c p h # # # . . % . . .   . . . % ",
". * . . . . . . . . . . r s t , u % . v w x y z . . l , . . A B * . . . . . . % o o o C p c q c p # # h h h h % . . . n o > . % ",
". * D E . F G H I J K u i i . . . L M N O L P Q R S T . . * U > . . . . . . . o o . . V | p h p   $ h h # $ h n . # h W X > . % ",
". . * Y Q j w Z Z ` E . . . . Y g  .. . ..+.@.. 0 0 . . . #.S > o o o o o o o n . . . _ $.%.# # $ h # # h $ # h h h h &.*.> . % ",
". . * . . E i =.. . . . -.b  .Y ;.. . Q E K . . e ' G . * >.,.o . . . . . . . o o n . . '.| . ).# # h !._ h h # h ~.{.].^.o . % ",
". . . * . . 6 /.s (.' t _._.. . . :.<._.:.. . E _.. [.. > > }.o |.1.. . . . . . . o n . '.'.. . ).: 2.V _ %.# h # 3.3.4.5.n . % ",
". . . . * U b 6.s E E . . . . S ' n a 7.. . 8.9.. 0.. * > a.b.n > c.> > . . . . . U b.. . . . . . . < : B d.e.# # f.f.g.> . . % ",
". . . . . * . . . . . . . 2 t  ./ h.. . _.M i.. >.j.g k.5 % . . o l.m.m.n.> . . V | } . . . . . o.p.. p.C : | q.r.> s.t.> . . % ",
". . . . . . * * * . t % j.I . u.. . . 4 4 I . v.w.x.y.* . . . . n z.A.n.m.m.X * . < . . . . . . . . . . . . %.B.C.D.E.W . . . % ",
". . . . . . . % . * E i i . . . 0 , F.a ..>.G.H.I.J.K.* . . . . n L.M.N.> O.P.. . . . . . . . . . . . . . ).Q.R.S.T.U.n . . . % ",
". . . . . . . % . . * * * * * * | V._.d Q W.X.Y.Z.`.u.* . . . n '. +.+l.> ++|.. . . . . n o o o n . . . . @+#+$+~.%+&+n . . . % ",
". . . . . . . % . . . . . . . % * * * * * * n *+=.= ;.* . . . n =+-+;+n . . . . . . . . . . >+o o n . . . ,+q.P.> '+X * . . . % ",
". . . . . . . n o o o o o n . % . . . . n k.n . . D K.. * . n n )+!+o . . . . . . . . . . . ~+{+~+o . . . ]+^+> ~+/+& * . . . % ",
". . . . . . . o . . . . . o o o o o o o o * . 0.i D ' . * . . n =+(+* . )+=+. . . o o n . . n n . . . . . . _+:+/+<+[+o . . . % ",
". . . . . . o . . . . . . . . . . . . . . * . 0.i % . * . . . n (+P.X . }+. . . . . >+o o . . . . . . . . . !+|+1+> '+& > . . % ",
". . . . . o . . . . . . . . . . . . . . . . * . . . . . . . . . 2+X . ++}+. . . . . ~+{+~+o . . . . n o o o o > 3+4+5+& > . . % ",
". . . . * . . . : . . . . . . . . . . . . . . . ).< 6+7+8+. . o n n . !+}+. o . . . . n n n . . . . o o o o o W > ].5+5+9+> . % ",
". . . o . . . . : 0+a+. . . c . . . . . . . . . . . . . c.^+'.o n . . }+. . o . . . . . . . . . . . n o o o o b+> c+d+e+> . . % ",
". . o . . . . . . . a+f+g+c q p . . . . . . . ).: . h+. . i+j+o n . )+!+. . . o . . . . . . . . . . . . o o > > k+l+8+> . . . % ",
". . o . . . . . . . . # # $ p $ h . . . . . . ).: m+n+^+B.. '.. o . =+++o+. . n . . . . . . n . . . . . n > > '.p+q+r+> . . . % ",
". . o . . . . . . . . $   # # h h # h . . . . . . . s+> t+. . . o n =+^.P.=+. n o . . . . . n n . . . . . o . u+(+n.v+> . . . % ",
". . o . . . . . . . . . . . . 2.$ h $ h . . . . . . . . w+. . . . o . x+++=+. . o '.. . . . . o n . . n n y+z+A+U.n.B+> . . . % ",
". . o . . . . . . . . . . . ).'.-+# # h # . . . . . . . . > . . . . n !+++)+. =+X o o o n n . n o o n n C+D+(+E+F+G+H+'.. . . % ",
". . o . . . . . . . . . . . . I+J+K+$ $ h ;+. . . . . . . L+P.. n X X B+M+}+=+!+}+N+K n * n . . n O+y+m P+Q+R+S+T+U+> . . . . % ",
". . o . . . . . . . . . . . . . s+V+h $ h ;+. . . . . . . T+> n X X . W+X+n ++++}+. '.Y+'.o o . < ,+Z+B.`+*. @c..@+@. . . . . % ",
". * K '.. . . . . . . . . . . < @@1+#@# # > . . . . . . . X $@P.++. !+%@W+&@*@&@=@n n n N+'.=+-@. j+;@$+>@,@[+'@)@!@o o . . . % ",
". * =+)+=+. . . . . . . . . . !.~@&.h # h # . . . . . c c p # P.=+. . =+++c.n.n.{@P.P.]@l.N+. ^@/@B.(@b+_@:@<@X X [@}@X o o . % ",
". * !+P.++. . . . . . . . . . |@1@d+h h h # . . . . . c q c p ++'.. . . . =+!+++P.++++2@%@x+3@{.4@5@o+6@A.+@p+7@8@9@0@a@1+b@> % ",
". * =+P.c.!+. . . . _+t+. . c@d@e@[@h h # h . . f@ +. p c q $ !+. . . . . . . . . '.'.. ++}+g@X X . h@X n n i@j@K+k@l@m@X+n@> % ",
". * =+M+o@n.++. I+=+S.4@. p@J+|+# h h q@# # # r@q+s@S+h p # # M+!+f@t@z+I+=+!+=+. . . . . '.=+u@n n v@n n g@&.w@W+x@8@y@*@z@X > ",
". * =+P.n.R+n.T+A@S.S+B@C@S.s@3.D@X k@> h h h # # h # E@h h # m.F@]@G@5@H@I@].{@!+. . . . . . . . n J@n n 7+r+K@H@D.L@M@q@N@X > ",
". . * B+O@U.v+].P@Q@R@m.S@n.T@U@;+> > V@'.=+n h #   h # # # $ # # K+W+4.x@s.W@m.4.X@'.. . . . . . n Y@Y@)+!+d@Z@n `@ #.#+#> X > ",
". * @###|.. (+;+F+4.m.M@$#> U.. . !+=+'.. . h # $ h # h # # # # h R+%#R+s.O.m@&#3+&.++!+!+!+_+. . *#=#f@-#D+K . ~@n@%#;#.@o > % ",
". * u@N+(+. . % o o >#> > ,#* . . . . . . . '#h # # # # h # # $ U.)#!+++!#>#~#{#.#]@P.}+]#]#^#}+/#L+8+(#f@=+A._#:#<#l.> [#> > % ",
". . }#}+B+U.n % . . . o @#o o * . '.. n ;+. V@n@$ # h h h * |#7@1#|#o '.=+. ! 5 > > > > N+n 5 (+> > 2#3#4#e@c.5#> 6#*.> o . . % ",
". . . (+c.v+X o o o 7#@#h   . ;+}+=+. N+l.8#9#0#5#$ # h h . . * @#7@7@o . . . % . . . . . . . % . . . p+H@a#9+b#> c#d#> . . . % ",
". . . . o ;+;+e#e#f#f## o . . o B+++=+!+l.g#D.h#i#  h h # . . % o o @#<@j#. . % . . . . . . . % . . . b+x+{.K+{#k#> > . . . . % ",
". . . . . . . # h h $ h . . . o @#l.c.++M+n.g#r+l#$ $ h $ . . % . n o N+P.U.. % . . . . . . . % . . . n p+`@> > > . . . . . . % ",
". . . . . . .   # h . . . . . % o ;+v+c.m#n#$@N+o#y+o . . . . % . . . (+l.l.> % . . . . . . . % . . . . . . . % . . . . . . . % ",
". . . . . . . % $ . . . . . . % . . o ;+;+;+n > > . . . . . . % . . . ! l.l.(+% . . . . . . . % . . . . . . . % . . . . . . . % ",
". . . . . . . % h . . . . . . % . . . . . . . % . . . . . . . % . . . p#k#c.> % . . . . . . . % . . . . . . . % . . . . . . . % ",
". . . . . . . % # . . . . . . % . . . . . . . % . . . . . . . o o o g@q#W+]@> % . . . . . . . % . . . . . . . % . . . . . . . % ",
". . . . . . . % $ . . . . . . % . . . . . . . % . . . . . o o r#X s#S@t#L@d#> % . . . . . + + + . . . . . . . % . . . . . . . % ",
". . . . . . . % $ . . . . . . % . . . . . . . u#u#u#. . * r#X v#X X w#X D.p+. % . . . . . + . + . . . . . . . % @ @ @ . . . . % ",
". . . . . . . % . . . . . . . % . . . . . . . u#. u#. . . o X n.r#n.[@r#(+> . @ @ @ . . . + + + . . u#. . . . % @ . @ . . . . % ",
". . & & & . + % . . . . . . . % . . . u#u#u#. u#u#u#. . . . o o N+N+> > . . . @ . @ . . . . . + . . u#. . . . % @ @ @ . & & & % ",
"u#& . % . & + % . . . . . . . % . . . u#. u#. u#. . u#u#u#* . % o {+* . . . . @ @ @ . . . + . + . . u#. . . . % @ . . & . % u#u#",
"u#. % . . % + % . . + + + . . % . . . u#u#u#. u#. . u#. u#. . % . . . . . . . % . @ . . . + . + . . u#. . . . % @ . @ % . . u#% ",
"u#. % % % & + % + & + . + & & . & & & . & u#& u#& & u#u#u#& & % & & & . & & & % & @ & . & + & + & & u#. & & & % @ & @ . % % u#u#",
"u#. . . . . + % + . + + + . . % . . . % . u#. u#. . u#% . . . % . . . % . . . % . @ . % . + . + . . u#% . . . % @ . @ % . . . % ",
"u#. . . . . + % + . + % . . . % . . . % . u#. u#. . u#% . . . % . . . % . . . % . @ . % . + . + . . u#% . . . % @ . @ % . . . % "};
