/* XPM */
static char * patternwall_xpm[] = {
"64 64 299 2",
"  	c #093D3D",
". 	c #095263",
"+ 	c #198F6D",
"@ 	c #FEFEFE",
"# 	c #1D6C6C",
"$ 	c #85CB56",
"% 	c #B1AEA4",
"& 	c #F2F2EA",
"* 	c #F7F7F2",
"= 	c #F9F9F6",
"- 	c #FDFDFC",
"; 	c #FBFBF8",
"> 	c #F4F4ED",
", 	c #F2F2EB",
"' 	c #C1BFB6",
") 	c #F8F8F4",
"! 	c #FCFCFB",
"~ 	c #FCFCFA",
"{ 	c #DEDCD3",
"] 	c #CFCEC6",
"^ 	c #C7C6BD",
"/ 	c #BFBDB4",
"( 	c #F8F8F3",
"_ 	c #F9F9F5",
": 	c #F5F5F0",
"< 	c #CBCAC1",
"[ 	c #E8E7DF",
"} 	c #BEBBB0",
"| 	c #B8B6AE",
"1 	c #D3D3CA",
"2 	c #BCBAB2",
"3 	c #F6F6F1",
"4 	c #F8F8F5",
"5 	c #C9C8C0",
"6 	c #D5D3CB",
"7 	c #C2C1B8",
"8 	c #C8C6BC",
"9 	c #B4B2A8",
"0 	c #F5F5EF",
"a 	c #F4F4EE",
"b 	c #F3F3EC",
"c 	c #C8C6BD",
"d 	c #D4D3CA",
"e 	c #CCCBC3",
"f 	c #B8B6AD",
"g 	c #B7B6AD",
"h 	c #B8B7AE",
"i 	c #B2B1A8",
"j 	c #B5B3AB",
"k 	c #B9B8AE",
"l 	c #B7B5AC",
"m 	c #BAB8AF",
"n 	c #AAA99E",
"o 	c #F3F3ED",
"p 	c #F6F6F0",
"q 	c #A19E93",
"r 	c #D2D1C8",
"s 	c #D0D0C7",
"t 	c #CAC9C1",
"u 	c #C2C0B8",
"v 	c #BAB9B0",
"w 	c #CECDC4",
"x 	c #CCCBC2",
"y 	c #C9C8BF",
"z 	c #DCDBD3",
"A 	c #BEBDB3",
"B 	c #F3F3EB",
"C 	c #D1D0C8",
"D 	c #D3D2CA",
"E 	c #D2D1C9",
"F 	c #D4D3CB",
"G 	c #CBCAC2",
"H 	c #C3C2BA",
"I 	c #C8C7BE",
"J 	c #C0BFB5",
"K 	c #B2B0A6",
"L 	c #9B978D",
"M 	c #D5D4CC",
"N 	c #B1AFA6",
"O 	c #C6C5BC",
"P 	c #C9C7BF",
"Q 	c #C9C7BE",
"R 	c #D6D5CC",
"S 	c #D7D6CD",
"T 	c #D8D7CF",
"U 	c #BBB9B0",
"V 	c #A6A49A",
"W 	c #9B988E",
"X 	c #F1F1E9",
"Y 	c #B6B4AA",
"Z 	c #D0CFC6",
"` 	c #EFEFE7",
" .	c #EDEDE5",
"..	c #EDECE4",
"+.	c #EFEEE6",
"@.	c #ADABA1",
"#.	c #C3C1B8",
"$.	c #FAFAF8",
"%.	c #F0EFE8",
"&.	c #D4D4CB",
"*.	c #F0F0E8",
"=.	c #EBEBE2",
"-.	c #E4E3DA",
";.	c #E3E3DA",
">.	c #E9E9E0",
",.	c #FBFBF9",
"'.	c #FAFAF7",
").	c #F7F7F3",
"!.	c #EEEDE5",
"~.	c #CACAC0",
"{.	c #E3E2D9",
"].	c #DAD8CF",
"^.	c #DAD9D0",
"/.	c #9F9E94",
"(.	c #B9B7AE",
"_.	c #D5D4CB",
":.	c #D3D1C7",
"<.	c #EAEAE2",
"[.	c #DFDED5",
"}.	c #D7D6CC",
"|.	c #D8D7CD",
"1.	c #ACABA1",
"2.	c #C4C2B9",
"3.	c #D8D7CE",
"4.	c #E5E5DD",
"5.	c #DCDBD2",
"6.	c #E7E6DE",
"7.	c #B8B7AD",
"8.	c #CCCAC2",
"9.	c #EBEAE2",
"0.	c #E2E1D8",
"a.	c #A6A39A",
"b.	c #A3A197",
"c.	c #A4A298",
"d.	c #A6A49B",
"e.	c #A9A79D",
"f.	c #AAA89E",
"g.	c #A9A69C",
"h.	c #ABA89F",
"i.	c #AEADA2",
"j.	c #AFAEA4",
"k.	c #BCBAB1",
"l.	c #B3B1A8",
"m.	c #B2AFA7",
"n.	c #B1AEA5",
"o.	c #CDCCC4",
"p.	c #CAC9C0",
"q.	c #E8E8DF",
"r.	c #E5E5DC",
"s.	c #A8A69D",
"t.	c #B0AEA4",
"u.	c #C4C2BA",
"v.	c #C6C4BB",
"w.	c #C4C3BA",
"x.	c #C5C4BB",
"y.	c #CCCAC1",
"z.	c #CDCCC3",
"A.	c #D7D6CE",
"B.	c #C9C8BE",
"C.	c #AEACA2",
"D.	c #D0CEC7",
"E.	c #D8D8CF",
"F.	c #EEEEE6",
"G.	c #B1B0A6",
"H.	c #BEBDB4",
"I.	c #CDCBC3",
"J.	c #CECDC5",
"K.	c #CDCDC4",
"L.	c #C7C6BC",
"M.	c #C7C5BC",
"N.	c #BBBAB0",
"O.	c #98968B",
"P.	c #D2D0C8",
"Q.	c #D9D9D1",
"R.	c #F1F0E8",
"S.	c #B9B9B0",
"T.	c #BBB9B1",
"U.	c #BBBAB1",
"V.	c #B6B4AB",
"W.	c #9C998E",
"X.	c #8E8C81",
"Y.	c #CECEC5",
"Z.	c #DAD9D1",
"`.	c #C3C2B9",
" +	c #C1C0B7",
".+	c #E6E5DC",
"++	c #E1E0D7",
"@+	c #D6D6CD",
"#+	c #B5B4AA",
"$+	c #C2C1B9",
"%+	c #D5D4CA",
"&+	c #AFACA3",
"*+	c #B9B7AF",
"=+	c #A9A89E",
"-+	c #B1AFA5",
";+	c #CFCEC5",
">+	c #DCDCD3",
",+	c #C7C6BE",
"'+	c #ABA9A0",
")+	c #B9B7AD",
"!+	c #B8B5AC",
"~+	c #AAA89F",
"{+	c #AAA79E",
"]+	c #D9D8CF",
"^+	c #CFCDC4",
"/+	c #CBCBC2",
"(+	c #C4C3B9",
"_+	c #DADAD1",
":+	c #D0CEC5",
"<+	c #CECCC4",
"[+	c #C6C5BB",
"}+	c #C0BEB6",
"|+	c #D1D0C7",
"1+	c #DDDCD4",
"2+	c #C5C3BA",
"3+	c #BDBAB1",
"4+	c #A7A59C",
"5+	c #ADAAA1",
"6+	c #BCBBB1",
"7+	c #BFBEB5",
"8+	c #BFBEB4",
"9+	c #B7B5AB",
"0+	c #B5B3A9",
"a+	c #98958A",
"b+	c #A2A096",
"c+	c #A9A79E",
"d+	c #A7A49A",
"e+	c #CCCCC3",
"f+	c #C3C2B8",
"g+	c #A8A59B",
"h+	c #A8A59C",
"i+	c #E5E4DC",
"j+	c #ECECE3",
"k+	c #E0DFD6",
"l+	c #DBDAD1",
"m+	c #D7D5CC",
"n+	c #B6B3AA",
"o+	c #B0AEA5",
"p+	c #E5E4DB",
"q+	c #979489",
"r+	c #B3B1A7",
"s+	c #FAFAF6",
"t+	c #D0CFC7",
"u+	c #EEEEE5",
"v+	c #C5C3BB",
"w+	c #FDFDFB",
"x+	c #EAEAE1",
"y+	c #FDFDFD",
"z+	c #C0BFB6",
"A+	c #BCBBB2",
"B+	c #C2C0B6",
"C+	c #B3B2A8",
"D+	c #B2AFA6",
"E+	c #B8B6AC",
"F+	c #A3A196",
"G+	c #B7B4AB",
"H+	c #C6C4BC",
"I+	c #406C53",
"J+	c #E6E5DD",
"K+	c #DBDAD0",
"L+	c #D6D5CB",
"M+	c #BEBCB3",
"N+	c #C2C0B7",
"O+	c #AFADA3",
"P+	c #DBDBD2",
"Q+	c #A9A69D",
"R+	c #C5E9AB",
"S+	c #DBDAD2",
"T+	c #A5A298",
"U+	c #D9D8D0",
"V+	c #E4E3DB",
"W+	c #D6D5CD",
"X+	c #D3D2C9",
"Y+	c #A19E95",
"Z+	c #E6E6DD",
"`+	c #ECECE4",
" @	c #EAE9E1",
".@	c #C8C7BF",
"+@	c #B9B6AD",
"@@	c #D1D0C6",
"#@	c #E1E1D8",
"$@	c #E7E7DE",
"%@	c #F5F5EE",
"&@	c #D2D1C7",
"*@	c #DFDFD6",
"=@	c #DDDCD3",
"-@	c #D1CFC5",
";@	c #CECDC3",
">@	c #D4D2C9",
",@	c #C8C6BE",
"'@	c #D1CFC6",
")@	c #CECCC2",
"!@	c #CCCAC0",
"~@	c #B4B3A9",
"{@	c #C2C0B5",
"]@	c #C7C5BB",
"^@	c #C0BDB3",
"/@	c #C2BFB5",
"(@	c #C5C2B8",
"  . . + @ + # # + # # . . . . . # $ $ + + $ $ $ + # # # # # # # # + + $ $ + $ $ $ #   . . $ $ + # . . # # # # .       . . .     ",
". . # + $ $ $ $ $ + $ $ $ + # + + $ $ $ $ $ $ # + # # + $ #     # + $ $ $ + $ $ $ $ + # . $ $ $ $ # . . + # # . # # . # # #   % ",
"+ $ $ $ + $ $ $ $ $ $ $ + # # # $ $ + + + $ $ # .   # $ + # . . & & & # .   + $ $ $ + . . $ @ $ + * . . + + $ + # # + $ + . . + ",
"# + # + $ # + + $ $ $ $ $ $ . & & + . . # # # # .   . + # # # .   & & &     . # $ $ + . = - - ; * > , # + $ $ $ # $ + $ # .   # ",
"+ # + + + # + + # + & $ $ $ $ . # # . . .   . . .     & . + # #   & & & & &   . . + # ' ) ! ~ ) > & & & & + $ $ $ # + + #       ",
"$ + # + # + # + # & . # $ $ $ . . . .   .     .       . . . . . & & & & & & {     ] ^ / ( ; _ : , & & & & & + & $ . # # # .     ",
"$ + # + + . # . # . . . # $ # & &   &     <     #   . # .     & & & & & [ { } } | 1 < 2 3 4 3 > , & & & & & & & & &   . # .   . ",
"+ # $ $ + # . # .   . # # # # & & & & + + 5 6 7 +   + + # .     + + . & [ { 8 8 7 6 5 9 0 3 a b & & & & & & & & & .     . #     ",
"# .   + # * # # .   . . # # . & & & & + + c d e . . + + + + . f f g h i j k l m e d c n > > o , & & & & & & & & . . . # + # # . ",
"+     . + $ p & . # . . . . & & & & &   q # #   r s # + + t u v v u t w x y s r z r A q b b B & & & & & & & & & & & # $ $ + $ # ",
"  . . + + # a & & # # . & & & & & & &     # #   . . C D E F G H H G F E D C x I < J K L & & & & & & & & & & & & & # # $ $ $ # M ",
"# # + + + # . & & & # & & & & & & &   . .   N . .   O P Q R S T T S R Q . .     U N V W X X X & & & & & & & & & & # # + Y . + Z ",
"+ # # + # . . . & & `  ...+.X & & & . # . . # # .     . @.#.F [ [ F #.. . # ; $.( a , %.{ { [ & & & & & & & & & & + + # # + . G ",
"< &.# . # . . . & *.=.-.;.>.` & & . . .   & & #   . . . . U R & & R U + + + ,.'.).a , !.{ { [ & X ` & & & & & & # #   . + # # . ",
"~.# . # # & . & & & {.].^.-. .& & & & & & & & + . . # . /.(._.& & _.(.# + ~ = 3 a b & [ [ [ & & *.[ { :.{ [ & . #       .   # # ",
"< + # # # & & & & <.[.}.|.{.& & & & & & & & & & + . # # 1.2.3.4.4.3.2.    ).0 B & & & & & & & & & [ { :.5.6.X & &   & . 7.  . . ",
"8.M $ + .   & & & 9.0.5.a.b.c.d.e.f.g.e.h.i.j.. # . # + k.y r x x r y . .   l.m.n.j.i.h.e.g.f.e.d.c.b.a.5.6.X & & & &   m P M # ",
"o.S p.+ # . & & X  .q.r.s.t.f ' u.v.w.x.I y.x z..   . z.A.F B.C.C.B.F # + w w o.z.x y.I x.w.v.u.' f t.s.X X X & & & & . k.p.S o.",
"D.E.e # . . & & & *.F. .G.H.O Z I.w w J.K.x ^ x.x.L.M.w.^ N.@.O.O.@.N.^ + M.L.x.x.^ x K.J.w w I.Z O   G.& & & & & & & # / e E.D.",
"P.Q.. # .     & X R.*.& S.I.C d . # .     . . U T.k.U.(.V.e.W.X.X.W.e.V.  . + # # + #   v.v.v.x.d C . S.& & & & & & [   # J.Q.P.",
"Y.Z.+ + # . + & *.`  . .`.M ] # # . + . .     , & & & & & & & & + + # .     # # . # . . & & & &  +]   . & & & & & & { . . Z Z.Y.",
"< A.# # # # + &  ..+++{ u.@+z.#+# + . . '.* a & & & & & & & & & & & & & & & & & & & & & & & & & #+z.# . . + & [ [ [ .   . # A.< ",
"$+C   . # .     [ 5.%+:.x.S < . +   + . p a b & & & & & & & & & & & & & & & & & & & & & & & & & &+< . . . # & . . .   .     . $+",
"*+x Z . . . # .   ^.8 :.Z D ^   . + # & & & & & & & & & & & & & & & & & & & & & & & & & & & & + =+^ . + #   # #   .         x *+",
"-+O ;+. . + + # . J.Y.C >+T ,+# #   . & & & & & '+V.' ' / U.)+!+!+)+U./ ' ' V.'+& & & & & & & . ~++ . # # Y.    . .   .   ;+O -+",
"{+' C ]+p.# # # z ]+_.R ^.C ' # . +   & & & & & V.v.d ^+/+^ x.(+(+x.^ /+^+d v.V.& & & & & & & + h.' C . # _.]+z _+r Q . ]+C ' {+",
"a.#+#.:+x . . _.d Z <+Z Z [+k # #   a & & & & & }+|+1+z.2+A 3+# # 3+A 2+z.1+|+}+& & & & & & . . + # + # + <+Z d _.|+x x :+#.#+a.",
"4+5+l.6+7+' }+8+k 9+0+)+7.# # . . # & & & & & & 7 ;+Z   # . +   . a+b+c+V.Z ;+7 & & & & & & & . # # # # . + 9+k 8+}+' 7+6+l.5+4+",
"& & & & & & & & & & & & . # + . + . & & & & & & 2+w I d++ # # + .   # & d+I w 2+& & & & & & & # +   + # # # & & & & & & & & & & ",
"& & & & & & b & & & & & & & & # # . & & & & & & v.w x.g.. + + '.* > . & g.x.w v.& & & & & & & & & & # & . & & & & & & & & & & & ",
"& & & & & & b & & & & & & & &   . + & & & & & & v.e+f+g+. ,.4 3 a b ` [ g+f+e+v.& & & & & & & & & & & & & & & & & & & & & & & & ",
"& & & & & & & & & & & & & & & +   & & & & & & & O z.f+h+. 4 : o , & i+{ h+f+z.O & & & & & & & & & & & & & & . & & & & & & & & & ",
"& & & & & & & & & & & & & & & & & & & & & & & & O z.f+h+. a b & & & :.:.h+f+z.O & & & & & & & & & & & & & # # & & & & & & & & & ",
"& & & & & & & & & & & & & & j+9.j+` X & & & & & v.e+f+g+& B & & & & :.:.g+f+e+v.& & & & & & & . #   X . . + & + & & & & & & & & ",
"& & & & & & & & & & & & & j+;.k+++>.` & & & & & v.w x.g.& & & [ { :.} 8 g.x.w v.& & & & & & <.i+. #   # . + . . . & & & & & & & ",
"& & & & & & & & & & & & ` [ l+%+m+;. .& & & & & 2+w I d+& & & [ { :.8 :.d+I w 2+& & & & & & # #   . . #   . #   . & & & & & & & ",
"4+5+l.6+7+' }+8+k 9+0+)+7.n+o+f.^.p+ .& & & & & 7 ;+Z V.c+b+a+q+q+a+b+c+V.Z ;+7 & & & & & q.  . . o+    # . . .   }+' 7+6+l.5+4+",
"a.#+#.:+x x |+_.d Z <+Z # [+k {+p+9.` & & & & & }+|+1+z.2+A 3+N.N.3+A 2+z.1+|+}+& & & & & [ [..   k [+Z     . d _.|+x x :+#.#+a.",
"{+' C ]+p.Q r _+z ]+_.# # # . h.` *.X & & & & & V.v.d ^+/+^ x.(+(+x.^ /+^+d v.V.& & & & ` >.{.. # ' C ^.  . ]+z _+r Q p.]+C ' {+",
"-+O ;+p.r+d+#   . . . + + . ,+~+& & & & & & & & '+V.' ' / U.)+!+!+)+U./ ' ' V.'+& & & & . #   + # ,+T >+. Y.J.x .   d+r+p.;+O -+",
"*+x Z O 3 _ s+4 p # . #   # . =+& & & & & & & & & & & & & & & & & & & & & & & & & & & .   . # + . ^ D Z + . # .   . & & O Z x *+",
"$+C t+x.( ,.! @ p & & . + .   &+& & & & & & & & & & & & & & & & & & & & & & & & & & & u+  # # + + < S # + . . . #     & x.t+C $+",
"< A.t+v+4 w+@ ; a b & # .   z.#+& & & & & & & & & & & & & & & & & & & & & & & & & & & x+  . # # #+z.@+    + . . ! 4 . & v+t+A.< ",
"Y.Z.Z 2.+ w+w+_ & & & & . M ]  +& & & & & & & & & & & & & & & & & & & & & & & & . . ` . . . +    +] M #   ! y+~ $.3 b & 2.Z Z.Y.",
"P.Q.J.  # w+,.* b & & & . I.C d x.v.v.v.`.z+A+U T.k.U.(.V.e.W.X.X.W.e.V.(.U.k.T.U . .   .   v.x.d C         $.4 3 b & & B+J.Q.P.",
"D.E.e # + # + # & & & &   H.O Z I.w w J.K.x ^ x.x.L.M.w.^ N.@.O.O.@.N.^ w.M.L.x.x.^ x K.J.w w I.Z O H.  . 3 * a b & & & / e E.D.",
"o.S p.k.# + # + & & [ [ . t.f ' u.v.w.x.I y.x z.o.w w z.A.F B.C.C.B.F A.z.w w o.z.x y.I x.w.v.u.' f t.. . p & & & & & & k.p.S o.",
"8.M P m # + . , & & { { a.b.c.d.e.f.g.e.h.i.j.n.m.l.C+D+k.y r x x r y k.D+C+l.m.n.j.i.h.e.g.f.e.d.. # #   + & & & & & & m P M 8.",
"< &.^ # + b # . & & { { { & & & & & & & & & & & & & & & 1.2.3.4.4.3.2.1.* = _ ).p b & & & & .   . # # # . & & & & & & & 7.^ &.< ",
"~.&.L.+ & & & # & & [ [ [ & & & & & `  . .& & & & & & & /.(._.& & _.(./.@ ,.'.).p b & & & & . & & & & & # & & & & & & & E+L.&.~.",
"< &.M.# & & & & & & & & & & & & & & .+++;.9.*.& & & & & F+U R & & R U F+@ @ ( 0 & b & & & & & & & & & & # & & & & & & & G+M.&.< ",
"G &.H+V.& & & & & & & & & & & & & [ 5.%+^..+` & & & & & @.#.F [ [ F #.@.@ a a , & & & & & & & & & & & &   & & & & & & # V.H+&.G ",
"Z Q.8.Y & & & & & & I+I+I+& & & & J+K+L+W V N U M+N+O P Q R S T T S R Q P O N+M+U N V W & & & & & & & & & & & & & & & & Y 8.Q.Z ",
"M Z.x O+. & & & & & I+& I+& & & *.<.{.k+L K J < I x C D E F G H H G F E D C x I < J K L & & & & & & & & & & & & & & & + O+x Z.M ",
"P+_+e Q+# # & & & & I+I+I+& & & X +.j+j+q A r z r s y x w t u R+R+R+t w x y s r z r A q & & & & & & & & & & & & & X X + # e _+P+",
"S+M ^ T+  & & & & & I+& & & & & & X *.*.n c d .   # k j i   g R+f R+h i j k l m e d c n & & & & & & & & & I+& & X ` .. .# ^ M S+",
"U+&.,+h+. & R+R+R+& I+& & & & & & R.R+R.9 5 6   . . .       & R+R+R+& & & & & & 7 6 5 9 & & & & & & & & & I+& & *.=.i+V+  ,+&.U+",
"W+X+^ Y+. & R+& R+& I+& $ & & & `  .R++.2 < 1 # .   #   0 b & R+& & & & & & & & | 1 < 2 & & & & & & & & & I+& & F.Z+K+|.  ^ X+W+",
"&.s O # # & R+R+R+& I+& $ & & & `+ @R+j+  ^ ] . . # 4 p > b & R+& $ & & X *.` *.#+] ^ / & & & & & & & & & I+& &  .{.%+# . O s &.",
"r ;+x.+ + & & & R+& I+& $ & & u+6.{.R+[   .@|+  # . 3 > , & & R+& $ & & ` j+[ j++@|+.@' . & & & & I+& & & I+& & =.k+@@+ + x.;+r ",
"z.$ #.  . & R+& R+& I+& $ & I+ @#@{ R+$@. 5 r +   * %@, & & & R+& $ & & j+p+{ p+. r 5 # + & & & & I+& & & I+& ` $@5.&@# # #.G z.",
"M.$ # + . & R+& R+& I+& $ ` I+*@3.|.R+J+. ,++ # a 0 b & & & & R+& $ & & >.k+m+k+  ;+,++ + & & & & I+& $  .I+[ -.=@%+-@# + z+I+M.",
"% $ . .   . R+& R+& I+& $ { I+^+;@>@R+# + +   # B b , & & & & R+& $ & $ [ { :.{ # ,@+ + . & & & & I+& $ ++I+:.'@)@!@+ . + ~@I+% ",
"  $ +     . R+& R+& I+& $ !@I+{@]@'@R+. # + +   # . # # & & & R+& $ & $ [ { :.. + . + + . . . . & I+& $ %+I+} ^@/@(@# + .   I+  "};
