/* XPM */
static char * pillarwall_xpm[] = {
"64 64 156 2",
"  	c #198F6D",
". 	c #1D6C6C",
"+ 	c #85CB56",
"@ 	c #093D3D",
"# 	c #095263",
"$ 	c #C6C6BE",
"% 	c #F2F2EA",
"& 	c #EBEBE3",
"* 	c #F9F9F7",
"= 	c #F6F6F1",
"- 	c #C9C9C1",
"; 	c #C2C2BA",
"> 	c #ECECE4",
", 	c #E8E8E0",
"' 	c #F5F5F0",
") 	c #D6D6CE",
"! 	c #FFFFFF",
"~ 	c #DBDBD3",
"{ 	c #C9C8C0",
"] 	c #BAB9B1",
"^ 	c #C1C0B8",
"/ 	c #ECECE3",
"( 	c #E9E8E0",
"_ 	c #F4F4EE",
": 	c #C5C4BC",
"< 	c #CAC9C1",
"[ 	c #D0D0C8",
"} 	c #ECEBE3",
"| 	c #EAE9E1",
"1 	c #C0C0B8",
"2 	c #C0BFB7",
"3 	c #B2B2AA",
"4 	c #C1C0B9",
"5 	c #F0EFE7",
"6 	c #BCBBB3",
"7 	c #B6B5AE",
"8 	c #EFEEE6",
"9 	c #EBEAE2",
"0 	c #F6F6F2",
"a 	c #BDBCB4",
"b 	c #C3C2BB",
"c 	c #D5D5CD",
"d 	c #CECEC6",
"e 	c #DBDAD2",
"f 	c #CDCCC4",
"g 	c #C2C1B9",
"h 	c #EAEAE2",
"i 	c #D8D7CF",
"j 	c #DADAD2",
"k 	c #C3C3BB",
"l 	c #E5E5DD",
"m 	c #CDCDC5",
"n 	c #C7C6BE",
"o 	c #EEEEE6",
"p 	c #D7D6CE",
"q 	c #E6E5DD",
"r 	c #EFEFE7",
"s 	c #C7C7BF",
"t 	c #F3F3EC",
"u 	c #EDEDE4",
"v 	c #C1C1B9",
"w 	c #C6C5BD",
"x 	c #E3E3DB",
"y 	c #EDEDE5",
"z 	c #E7E7DF",
"A 	c #F0F0E7",
"B 	c #CC70F6",
"C 	c #F0F0E8",
"D 	c #F8F8F5",
"E 	c #F7F7F3",
"F 	c #C3C2BA",
"G 	c #FFEC83",
"H 	c #B747C7",
"I 	c #E5E5DC",
"J 	c #E6E6DD",
"K 	c #F9F9F6",
"L 	c #C4C3BB",
"M 	c #DAD9D0",
"N 	c #DFDED5",
"O 	c #C8C8C0",
"P 	c #C5C5BD",
"Q 	c #D1CFC5",
"R 	c #DAD8CF",
"S 	c #F7F7F2",
"T 	c #F5F5EF",
"U 	c #CBCBC3",
"V 	c #D5D3C9",
"W 	c #F3F3ED",
"X 	c #D5D3CA",
"Y 	c #D7D5CB",
"Z 	c #D9D8D0",
"` 	c #E2E2DA",
" .	c #E9E9E1",
"..	c #E4E4DC",
"+.	c #D9D8CF",
"@.	c #DAD9D1",
"#.	c #E4E3DB",
"$.	c #DEDCD3",
"%.	c #DCDAD1",
"&.	c #DEDDD4",
"*.	c #DDDCD2",
"=.	c #DCDBD2",
"-.	c #CACAC2",
";.	c #CFCFC7",
">.	c #D9D9D1",
",.	c #C4C4BC",
"'.	c #E3E2D9",
").	c #E7E6DD",
"!.	c #E9E9E0",
"~.	c #CCCBC3",
"{.	c #E6E6DE",
"].	c #EEEEE5",
"^.	c #F2F2EB",
"/.	c #D1D1C9",
"(.	c #D2D2CA",
"_.	c #E1E1D9",
":.	c #D8D8D0",
"<.	c #E3E3DA",
"[.	c #F4F4EF",
"}.	c #C9C8C1",
"|.	c #EAEAE1",
"1.	c #E1E0D7",
"2.	c #F8F8F4",
"3.	c #E1E0D8",
"4.	c #E1DFD7",
"5.	c #FAFAF8",
"6.	c #DDDBD2",
"7.	c #FBFBF9",
"8.	c #F7F7F4",
"9.	c #B9B8B0",
"0.	c #BEBEB6",
"a.	c #D6D4CB",
"b.	c #FBFBFA",
"c.	c #CBCAC2",
"d.	c #D2D1C7",
"e.	c #B7B6AE",
"f.	c #CCCCC4",
"g.	c #E4E3DA",
"h.	c #E8E7DF",
"i.	c #FDFDFC",
"j.	c #F9F9F5",
"k.	c #EBEBE2",
"l.	c #E5E4DB",
"m.	c #C5E9AB",
"n.	c #406C53",
"o.	c #CFCEC6",
"p.	c #E3E2DA",
"q.	c #D0CFC7",
"r.	c #D3D2CA",
"s.	c #DFDFD5",
"t.	c #D1D0C8",
"u.	c #D5D4CC",
"v.	c #DBDAD0",
"w.	c #D2D1C9",
"x.	c #CAC8BE",
"y.	c #CECCC2",
"        .   + + . . .   + +   . @ # # . + . +   . @ # .   # # #     + + +     . + + . # # # # . .     + . . . #   +   @ . . . . ",
". .     . . + +   # .   + . . . . # .     + +   . # # + .       + + + +     .   + +   # # .   . # # . . + +   + + +       . # # ",
".   + + . + + + +   # . . # #     . . #         # # . . + + +   + + + + . @ @ + +   . . . . .     @ # . + +   + + + +     # @ # ",
"+ + +       + + + + # # @ @ .     . # # @ @ +   .   . + + .     + + + + @ @ # .   $ @ @ @   +       # # +         + + . . # # . ",
"  + + . .       + . # # # % & . * = @ @ @ # #   # .       + .   +   .   # @ - # - - ; @ #   +       # . . . # . . . .   . # . . ",
"      . # . # # # # # # # % > , ' @ @ @ # # # # . .   .   # . .   . # . # ) ! # . ! ~ {   % +   ' % . . . # @ @ # # # # . # # # ",
"      . . @ @ # @ % ] # ^ % / ( _ % % @ : ! % #       +   # @ .   . @ # # ! .     % < [ ^ % /   _ # % @ . @ @ @ @ # # # #   @ @ ",
"# .   . # @ % % % % % ] ; % } | _ % % 1 2 ! % %   + + + . . }   _ + % # . !   + +   # [ ; % #   . # @ @ @ @ @ @ @ # # ] ; . . @ ",
"# . # # @ # % % % % % 3 4 % 5 | _ % % 6 2 ! % % % % <   . # 5 | _ % + @ . . + +   % # . 4   . # . # # @ @ @ % % % # % 3 4 % . @ ",
"# # @ 7 @ 3 % % % % 3 { ^ % 8 9 ' % % 7 2 ! % % % % 3 [ @ % 8 9 ' + + .   +   +   # . . # + . # # @ . # @ . % % % % 3 { ^ % 8 @ ",
"0 # % a b c d % % 3 e f g % % h 0 % % a b i < < < 3 j [ g % % h 0 % % + +   .   . . . . # @ @ # @ .   . . c d % % 3 e f g % % h ",
"0 % % ] k ) l d 3 , ~ m n % % 9 0 % % ] k ) l o o , ~ m n % % 9 0 % % ] k ) . o o . . . # @ # #     % + k ) l d 3 , ~ m n % % 9 ",
"' % % g ! p q o r , ~ ! s % % & ' % % g ! p q o r , ~ ! s % % & ' % % g ! p q o r , ~ . . # # .   % % g ! p q o r , ~ ! s % % & ",
"t % % ! % ! l o o , ! % 3 % % u t % % ! % ! l o o , ! % 3 % % u t % % ! % ! l o o , ! %   % . .   % % ! % ! l o o , ! % 3 % % u ",
"% % % v 3 % ! ! ! ! % 3 s % % u % % % v 3 % ! ! ! ! % 3 s % % r % % % v 3 % ! ! ! ! % 3 s % % . % % % v 3 % ! ! ! ! % 3 s % % u ",
"% % % v w d % % % % 3 d s % % u % % % v w d % % % % 3 d s % % u % % % v w d % % % % 3 d s % % u % % % v w d % % % % 3 d s % % u ",
"% % % v w ! % % % % 3 d s % % u % % % v w ! % % % % 3 d s % % u % % % v w ! % % % % 3 d s % % u % % % v w ! % % % % 3 d s % % u ",
"% % % v ! % d d d d % 3 s % % u % % % @ ! % d d d d % 3 s % % u % % % v ! % d d d d % 3 s % % u % % % v ! % d d d d % 3 s % % u ",
"% % % ! % d x & y z 3 % 3 % % u % % % @ % d x & y z 3 % 3 % % u % % % ! % d x & y z 3 % 3 % % u % % % ! % d x & y z 3 % 3 % % u ",
"t % % v 3 ) x & y z ~ 3 s % % A t % % v 3 ) x & y z ~ 3 s % % A t % % v 3 ) x & y z ~ 3 s % % u t % % v 3 ) x & y z ~ 3 s % % u ",
"' _ % v w ) B     # ~ d s % C > ' _ % # w ) x ! ! z ~ d s % C > ' _ % v w ) x ! ! z ~ d s % C > ' _ % v w ) x & y z ~ d s % C > ",
"D E % F n B G H       d s % I J D E % @ n ) ! % % ! ~ d s % I J D E % F n ) ! % % ! ~ d s % I J D E % F n ) ! ! ! ! ~ d s % I J ",
"K K % L #   H       # . s % M N K K @ @ O ! % % % % ] d s % M N K K % L O ! % % % % ] d s % M N K K % L O ! % % % % < d s % M N ",
"D = % P . @ .   # %   # s % Q R D = # P ! % % % % % % ] s % Q R D = % P ! % % % % % % ] s % Q R D = % P < ! % % % % < [ s % Q R ",
"S T % P # . @ % % % @ [ U % Q V S T . # 3 % % % % % % 3 U % Q V S T % P 3 % % % % % % 3 U % Q V S T % P < ! % % % % < [ U % Q V ",
"T W % w   @ % % % % 3 [ U % Q X T W # # < 3 % % % % 3 [ U % Q X T W % w < 3 % % % % 3 [ U % Q X T W % w < ! % % % % 3 [ U % Q X ",
"_ t % w < i < < < 3 j [ U % Q Y _ t # @ < i d % % 3 j [ U % Q Y _ t % w < i d % % 3 j [ U % Q Y _ t % w < i < < < 3 j [ U % Q Y ",
"W t % : < Z `  .h ..j [ U % Q +.W t @ @ @ Z ` d 3 ..j [ U % Q +.W t % : < Z ` d 3 ..j [ U % Q +.W t % : < Z `  .h ..j [ U % Q +.",
"W t % L ! @.#.h h l j ! U % $.%.W t # # # @.#.h h l j ! U % $.%.W t % L ! @.#.h h l j ! U % $.%.W t % L ! @.#.h h l j ! U % $.%.",
"W t % ! % < ..h h l ! % 3 % &.*.W t # . . < ..h h l ! % 3 % &.*.W t % ! % < ..h h l ! % 3 % &.*.W t % ! % < ..h h l ! % 3 % &.*.",
"W t % k < % < ! ! ! % 3 U % Q =.W t # @ # . < ! ! ! % 3 U % Q =.W t % k < % < ! ! ! % 3 U % Q =.W t % k < % < ! ! ! % 3 U % Q =.",
"W t % k -.< % % % % 3 ;.-.% Q %.W t . #   @ % % % % 3 ;.-.% Q %.W t % k -.< % % % % 3 ;.-.% Q %.W t % k -.< % % % % 3 ;.-.% Q %.",
"_ t % k -.! % % % % >.d - % Q &._ t @ # # . % % % % B B B % Q &._ t % k -.! % % % % >.d - % Q u _ t % k -.! % % % % >.d - % Q &.",
"_ W % ,.! % < < < < % 3 O % %.'._ W . @   # . . . H G B O % %.'._ W % ,.! % < < < < % 3 O % %.u _ W % ,.! % < < < < % 3 O % %.'.",
"_ t % ! % <  .> & l >.% 3 % ).!._ t . # #   . @ # H G H 3 % ).!._ t % ! % <  .> & l >.% 3 % ).u _ t % ! % <  .> & l 3 % 3 % ).!.",
"W t % ~.[ ~  .> & {.j 3 s % % ].W . . .   @ .     # H B @ % % ].W t % ~.[ ~  .> & {.j 3 s % % u W t % ~.3 ~  .> & {.j 3 s % % ].",
"^.^.% m /.~ , & & l j d s % % u ^.@     .   @       # @ @ % % u ^.^.% m /.~ , . . l j d s % % u ^.^.% m /.~ , & & l j d s % % u ",
"% % % d /.) ! ! ! ! ~ d s % % u % . .     . . # #   . # @ % % u % % % d /.) # #   @ @ d s % % u % % % d /.) ! ! ! ! ~ d s % % u ",
"% % % d (.! % % % % < d s % % u % @ .   .   @     @   . @ % % u % % % d (.! % # . # . # s % % u % % % d (.! % % % % < d s % % u ",
"% % % d (.! % % % % < d s % % u % % . . . . . # # % # @ s % % u % % % d ! % % % @ . # # s % % u % % % d (.! % % % % < d s % % u ",
"% % % d (.! % % % % < d s % % u . . . . # % . % . % # 3 s % % u % % % d 3 % % % # % @ . s % % u % % % d (.! % % % % < d s % % u ",
"% % % d /.! % % % % 3 d s % % u # # % # . 3 # % # %   d s % % C % % % d /.3 % % % % @ @ s % % u % % % d /.! % % % % 3 d s % % u ",
"% % % d /.i < < < 3 j m s % % u % # % # /.i @ % % 3 @ m s % % u % % % d /.i d % % 3 j @ s % % u % % % d /.i < < < 3 j m s % % u ",
"^.% % d /.>.` {., ..>.m s % % J ^.% % d /.>.# d 3 ..>.m s % % J ^.% % d /.>.` d 3 ..>.m s % % J ^.% % d /.>.` {., ..>.m s % % J ",
"W ^.% d ! >._.{., ..:.! O % % <.W ^.% d ! >.@ {., ..:.! O % % <.W ^.% d ! >._.{., ..:.! O % % <.W ^.% d ! >._.{., ..:.! O % % <.",
"T W % ! % s _.{., ..! % 3 % % N T W % ! % s _.{., ..! % 3 % % N T W % ! % s _.{., ..! % 3 % % N T W % ! % s _.{., ..! % @ % % N ",
"0 [.% d s % ! ! ! ! % 3 - % % =.0 [.% d s % ! ! ! ! % 3 - % % =.0 [.% d s % ! ! ! ! % 3 - % % =.0 [.% d s % ! ! ! ! % 3   % % =.",
"E T % d /.s % % % % 3 f }.% % %.E T % d /.s % % % % 3 f }.% % %.E T % d /.s % % % % 3 f }.% % %.E T % d /.s % % % % 3 f # % % %.",
"E ' % ;./.! % % % % ! ~.s % |.1.E ' % ;./.! % % % % ! ~.s % |.1.. ' % ;./.! % % % % ! ~.s % |.1.E ' % ;./.! % % % % ! ~.@ % |.1.",
"2.' % m ! % d d d ! % 3 P % | 3.2.' % m ! % d d d ! % 3 P % | 3.  ' % m ! % d d d ! % 3 P % | 3.2.' % m ! % d d d ! % 3 . % | 3.",
"K = % ! % d ..h h {.d % 3 % % 4.K = % ! % d ..h h {.d % 3 % % 4.. = % ! % d ..h h {.d % 3 % % 4.K = % ! % d ..h   @ d % . % % 4.",
"5.S % P 3 j l & o z ~ 3 k % % 6.5.S % P 3 j l & o z ~ 3 k % % 6.  S % P 3 j l & o z ~ 3 k % % 6.5.S % P 3 j l & o   # #   % % 6.",
"7.8.% k < j {.! ! z j < k % 1.  7.8.% k 9.^ - - - - ; 0.k % 1.a.7.8.% k 9.^ - - - - ; 0.k % 1.a.7.8.% k < j {.! ! z #   . % 1.a.",
"b.2.% k < j ! % % ! >.c.w % 1.@ b.2.% k 0.2 ! ! ! ! 2 { w % 1.d.b.2.% k 0.2 ! ! ! ! 2 { w % 1.d.b.2.% k < j ! % % ! @ # . # 1.d.",
"b.2.% e.-.! % % % % ] f.{ % g.# @ 2.% e.: ! % % % % < [ { % g.a.. 2.% e.: ! % % % % < [ { % g.a.b.2.% e.-.! % % % % . # # @ g.a.",
"b.2.% e.! % % % % % % ] ~.% h.@ @ 2.% e.2 ! % % % % < [ ~.% h.N b.2.% e.2 ! % % % % < [ ~.% h.N b.2.% e.! % % % % % B #   @ h.N ",
"i.j.% k 3 % % % % % % 3 f % k.@ @ j.% k 2 ! % % % % < [ + + + l.@ j.% k 2 ! % % % % < [ f % k.@ i.j.% k 3 % % % % % B H # # k.l.",
"! 5.% k s 3 % % % % 3 f m % |.  @ 5.% k 2 ! % % % % 3 [ + % + l.@ . % k 2 ! % % % % 3 [ m % |.@ @ 5.% k s 3 m.% % B G H   # |.l.",
"n.5.% O + + + % % 3 o.d o.% '.  @ n.% O b [ < < < 3 [ [ + + + p.# # % O b [ < < < 3 [ [ o.% '.@ @ 5.% O P - m.% % # H   . # n.n.",
"n.5.% - + O + 3 3 q.q.[ r.% p.#   n.% - k [ q.;.;.q.[ m r.% + s.. # n.- m.m.m.;.;.q.[ m r.% p.@ # 5.% - w O m.  @     # # . n.s.",
"n.j.% d + + + ;.t.+ r.u.p %   # # n.% n.n.n.m ;.t.m.r.u.+ % + v.. # n.d m.-.m.;.t.w.r.u.p % + # # j.% # # # m.# m.. #   @ # n.n.",
"  E % % + % l {.{.+ z , ( 8   @ . n.% n.% n.l {.{.m.z , + 8 + @ . # n.% m.m.m.{.{.% z , ( 8 + @ @ E % # .   m.  m.  . # # # n.# ",
"#   . . +   @ + # + # # @ # #   . n.@ n.n.n.# x.Q m.@ # + @ + @ # # n.# n.# m.. Q Q Q Q y.@ + # + @ # # # # m.. m.. # # n.. n.# ",
". # #   +   # + . + .   . #   # # n.# n.@ @ @ @ @ m.@ @ + @ + # . # n.# n.# m.@ # # # @ @ @ + @ + @ @ # #   m.  m.@ # # n.# n.@ "};
