/* XPM */
static char * vinewall_xpm[] = {
"64 64 76 1",
" 	c #198F6D",
".	c #1D6C6C",
"+	c #093D3D",
"@	c #85CB56",
"#	c #095263",
"$	c #FCFCFB",
"%	c #F2F2EA",
"&	c #DDDCD3",
"*	c #E0DFD6",
"=	c #CAC8BD",
"-	c #B4B1A6",
";	c #FFFFFF",
">	c #ECEBE3",
",	c #EBEBE3",
"'	c #E7E7DE",
")	c #DFDED5",
"!	c #D9D7CE",
"~	c #C4C2B8",
"{	c #F8F8F5",
"]	c #F2F2EB",
"^	c #E1E0D8",
"/	c #DEDDD4",
"(	c #D4D3CA",
"_	c #D1CFC6",
":	c #F4F4EE",
"<	c #C2C0B6",
"[	c #F3F3EC",
"}	c #C6C4BA",
"|	c #DCDBD1",
"1	c #FAFAF8",
"2	c #F6F6F1",
"3	c #DDDBD2",
"4	c #FDFDFD",
"5	c #E5E4DB",
"6	c #F7F7F3",
"7	c #FAFAF7",
"8	c #E3E3DA",
"9	c #F9F9F6",
"0	c #E8E8E0",
"a	c #F5F5F0",
"b	c #F5F5EF",
"c	c #EDEDE5",
"d	c #EEEEE5",
"e	c #F7F7F2",
"f	c #E6E6DD",
"g	c #E3E2D9",
"h	c #C1BFB5",
"i	c #F6F6F2",
"j	c #8F8A7D",
"k	c #CECDC3",
"l	c #C9C7BD",
"m	c #BAB7AC",
"n	c #F3F3ED",
"o	c #C7C5BB",
"p	c #C5C2B8",
"q	c #BFBDB2",
"r	c #B9B6AB",
"s	c #F0EFE7",
"t	c #FEFEFE",
"u	c #FDFDFC",
"v	c #EEEEE6",
"w	c #F0F0E9",
"x	c #EAEAE2",
"y	c #E5E4DC",
"z	c #F0F0E8",
"A	c #E2E1D8",
"B	c #CAC8BF",
"C	c #EAE9E1",
"D	c #D3D1C8",
"E	c #EFEEE6",
"F	c #FBFBF9",
"G	c #D4D2C9",
"H	c #E6E5DD",
"I	c #B6B3A8",
"J	c #406C53",
"K	c #C5E9AB",
" .++.@ .+##.###.++#  @ ##+#.@ .    #. ....#      #+  @@@  #..+..",
" .+#   #++ ..+#..#+ @@.####    .#@...  .@      .##.@@@@@    #+.#",
"@.+#@@.++..  .#  .+# @ ++.     ... .#.  @@   . .#.  @ @      +#.",
"@.# @@###...@@  ...#.@@.++@@    ...     @@    .....  @@.     ++#",
"@@@   .###.+.@ .......  +@@@  #.#..    @@@@@ @.#..#.@  .      #.",
"@@    .#+#+# @ @ #.@@   @@@@@.##@.     @ @ .#@@...   @   . @ .#.",
"...    .++.@ @ ..# @@   @@@@@ #..        .## @@@@ .  @    ..@.##",
"#..# . ###    #.. @@@@.. @ @@.          #+# @@@@@.  @@  . ..#..#",
"###.#.##. .  ##+..@@@@@#.  ...     ... .+#$@ @ ... @@@  ..@..###",
"+#+####.   .#.##+.  @@@.#. .++#   ...### .## ..#...@@@@ ..  .+#+",
"#+#####. ..##.##+#.  @ #..  .+# %#.###&.. ####..#++ .@ @.    #+#",
"#.#.#++.#.#+.####..#..##+.   .. %%+#+*=-;.+####.++++#.@.#    #.#",
". .. #++#+######..#.#+#+..#   ..>,'+)!~-.{+]######+++ @..#.] . .",
".    .++++###++ ..#++++##.#.  ..+^/(_++##+:+%.##+++###.###.#   .",
"+   ..++#####+##.#+##+.##.....#.+++<++++#+[#+#.++++..###+##.+  +",
"##   +###.##+##..#.##+#.##.. #}##+++#++++[]#+|}++#+#.##### ## ##",
"###.###.##%#+#.. ..##+##+## .#*##++###;#12##...3;#.#4..#..  .###",
"+###.#.. .%### .... #####..#.5)-...###116##....-+....71.#  .#+#+",
"++#####   ##+##..#.  ###%]##.8&-;9####2%%]##0.++##. .a2#  .#.+++",
"+#.#+. .   #++#.; # .+#++++...=-;92#%%%%%%#+#++#####  .   #####+",
"#. .##   .@#++#.;@. #%#+#+##.#~-;{b]%%%c>#+++++####..   ..##).##",
".   ++# @ ..++#....  d###.#.#+. 9e:++dfg##++_+h#..#.   ..###_. #",
"i. ..+#.@ @@..#.#.# ... .....+-ji .##gkl.#+<m###.###    ####.  #",
"n[..  }.@@@@.... # .    op  .#jj  .++#}qo#rq--#.### ..  #+#q- .#",
"#++   .3. @@ .   . s ##   . #t+## ++##.3;##u4t;##2++#.. .. .4###",
"##.#.# -;. @ 7 .  . ##..  1.7+###+%v##.#;##77711#+++#...#   7 ##",
"#++##   ;...aa.. . c#... .6.#.##++wc0.&#+##  a2%+++##+.#     ++#",
"+#++.   .# +#+#. . xy## ##2  .#.%+zxy*=#+# n %%###. #.@   @# +#+",
"+#.##! .  .+++# #.'^.#.#####.#. >,'^)!#++. ] ###+..  @@ # #]%.#+",
"+###_k.  .#++#..##/  .++...#.d. A^/(_#+##e# #+#+## @@@@ #++#+##+",
"##B<m#+. .++#... #B.#+###...C#k. DB#++++ib#+#++++.  @@@###.#++##",
"oprq--+#..+++...#prq+##.#. E##+##p.##++jn##++++## .  @@.....#++ ",
";F#u4t###..+++#####u#####.. .++++.###+;;+#.+#.++.. ...@ .. ..#++",
";1.#771##...++##.+#####++#...+++##.##7116#.## ..#..+#+#..  @..++",
";9.#aa++#.wc+#..#+#a+##++####++## .#aa2%%]w##    ##++###  @@@..+",
";@@.#++#.#.+. ..###..##+#.z##+##  #.%%%%%%z.@@@@@++#@ #..@  @  +",
"@@ #######+^#  ####.#++#..'^)+#   .]%%%c>, @@@@.;##  ... @@@).  ",
"9e.]#...##+++..#++.##..##./(_k# 9 .]%dfgA .. @.#.    @@....(##  ",
"ib[+## ..##+###.####  .l# B<m+# i ##Cg+lGD.#m+. ...@ @@@.#B<#.  ",
"n[+++. ..######+++#   .+#.  .###..##y|#+op##+#  n.#+# @ .##+.+  ",
".2%s#.  +#+++#++++.   .++#. ..#....#+H#.#F#+#   .2%##.@...##   .",
".:%v  @.##+++##+++#   ##+++#..1...++++..#++#   #+##.###...##.  .",
" .   @@.;+6+.##%%#.   ##++++#..#.#+++.....##.  +++.##8#+. .a# . ",
"  zxy  #+++# .##%%. . #-++#n++.####+y. .####. .+#+##y*.#;.#n%# .",
"..  ..#++{b+  ##>,#..#.#+#.]%#%# .##)..+#..#...###+.#. .++    .#",
" ..._#++++:   ..A^+. .. ...]%dfgA  . ..+#.#+#.##. . .@ .  .]%.#.",
". B<m++#.#[   # #DB  .     .Cgk  D#.  .####+++k.   @@@ ji [zCg.#",
".prq-+#. #.  .###p.       ..y|   p##  .. .++##.q p@@@@ .#[]E  }#",
";F$u4t.  .#  #*###  . ;    .    .## 4  ...+ .##.  @@@  ;12%   *3",
";1177711.... .)-##   711  #.x5   +#.. .#.    ###   @@ .16:   . -",
";96aaa2%%#w .  .. ..  2%  #.0  . ###a..   .@  .#.96 . 2%%]  .#. ",
";92n%%%%%%#     .     %  #   .    .        @@   # 2n  %%%@   .  ",
";{b]%%%c>,..    ..         ^ ..            @@  .    ..%c>@@ )!.-",
"9e:]%dfgA^  .kh-  .      ./(_ h           @@@@@  #@@   gA^@(_kh-",
"ib[zCgklGD  mI-jib.     .# <mI       g   @@@@ .  .[@    GDB<mI-j",
"n[]JJJ}qo#.   jjn##E    ++ q--jj [] y#   .#.  jj@[]Ey .+oprq--jj",
"12%J>J*3++#.4t;; . s>  .#+$u4t;;12%s>H#. ###. ;;12%s>H 3;F$u4t;;",
"6:%JJJ)-;1#7771 .   x5).;11777116:Kvx5)- .+#..116:%vx5)-;1177711",
"%]wc0J&-;96aaa@%  . .8&-;96aaKKK%]Kc08&-; 6a.a2%%JJJ08&-;96aaa2%",
"%%zJyJ=-;92n%%@%%% +.*=-;92n%K%K%%Kxy*=-;92n%%%%%JzJy*=-;92n%%@%",
">,'J)J~-;{b]%%@c>,'#)!~-;{b]%KKK>,K^)!J-;{b]%%%@>JJJ)!~-;{b]%%@c",
"A^/J_JhJ9e:]%d@gA^@(_kh-9e:]%KfgK^K(_kJ-9e:]%df@A^/J_Jh-9e:]%d@g",
"GDBJmJ-Jib[zCg@l@D@<mI-jib[zCKklKDK<mIJjib[KCgk@GDBJmJ-jib[zCg@l",
"oprJ-JjJn[]Ey|@q@p@q@-jjn[]EyK}qKpKq--Jjn[]Ky|}@oprJ-Jjjn[]@y|@q"};
